# xmcd
#
# Track frame offsets:
#        150
#        13388
#        27289
#        40904
#        53115
#        69018
#        80957
#        95335
#        109263
#        122611
#        136320
#        152696
#        166250
#        181303
#        194983
#        206318
#        219915
#
# Disc length: 3103 seconds
#
# Revision: 0
# Processed by: cddbd v1.5.2PL0 Copyright (c) Steve Scherf et al.
# Submitted via: CDGFix 3.8d
#
DISCID=eb0c1d11
DTITLE=Various Artist - CB5082D02
DYEAR=1900
DGENRE=Karaoke
TTITLE0=Tex Williams - Smoke! Smoke! Smoke! (That Cigarette)
TTITLE1=Spade Cooley - Shame On You
TTITLE2=Al Dexter and His Troopers - I'm Losing My Mind Over You
TTITLE3=Bob Wills and His Texas Playboys - New Spanish Two Step
TTITLE4=Ernest Tubb - Rainbow At Midnight
TTITLE5=Eddy Arnold - Bouquet Of Roses
TTITLE6=Merle Travis - Divorce Me, C.O.D.
TTITLE7=Al Dexter and His Troopers - So Long Pal
TTITLE8=Eddy Arnold - I'll Hold You In My Heart (Till I Can Hold You In  My Arms)
TTITLE9=Tex Ritter and His Texans - I'm Wastin' My Tears On You
TTITLE10=Ernest Tubb - Soldier's Last Letter
TTITLE11=Eddy Arnold - Just A Little Lovin' (Will Go A Long, Long Way)
TTITLE12=Red Foley - New Jolie Blonde (New Pretty Blonde)
TTITLE13=Al Dexter And His Troopers - Wine, Women And Song
TTITLE14=Jimmy Wakely - I Love You So Much It Hurts
TTITLE15=Hank Williams, Sr - Lovesick Blues
TTITLE16=Eddy Arnold - Don't Rob Another Man's Castle
EXTD=
EXTT0=
EXTT1=
EXTT2=
EXTT3=
EXTT4=
EXTT5=
EXTT6=
EXTT7=
EXTT8=
EXTT9=
EXTT10=
EXTT11=
EXTT12=
EXTT13=
EXTT14=
EXTT15=
EXTT16=
PLAYORDER=
